<svg version="1" xmlns="http://www.w3.org/2000/svg" width="657.333" height="657.333" viewBox="0 0 493.000000 493.000000"><path d="M163.7 41.4c-2.7 2.1-3.3 5.9-3.2 20.4l.1 13.2-3-.5c-27.1-4.8-64.4-2-90.6 7-10.8 3.7-23.4 9.6-27.8 13.2l-2.7 2.1v17.6c0 16.5.1 17.7 2.1 19.6 2.8 2.9 7.9 2.9 10.7.1 2-2 2.2-3.2 2.3-14.6.1-8.6.6-13 1.5-14.1 4.8-5.8 35.5-15 56.9-17 13.2-1.3 34-.7 44.5 1.2 21.3 3.8 45.1 11.9 47.3 16.1.6 1.1 1 61.5 1 168.6V441h-131l4.8-3.3c12.1-8.1 13.1-27.3 2.1-37.9-4.4-4.2-11.9-8.1-22.6-11.9-11.3-4-16.2-7.9-15.4-12.2.7-3.4 5-5.9 10.4-6 6.5-.1 10 2.9 11.1 9.7.3 1.7 1.2 1.9 9.6 1.8 16.8-.1 15.1.4 14.5-4.4-2.2-20.2-24.8-31.2-49.2-24.2-20.4 5.9-27.6 25.8-14.5 40.3 4.8 5.4 11.7 9.2 25.3 14.2C58.7 411 62 413.6 62 417.9c0 3.4-3.2 7-6.4 7.2-12.1.8-17.1-2.3-17.5-10.9l-.1-2.7-11.7.1c-6.5.1-12.1.2-12.4.3-1.4.3.5 10.9 2.7 15.2 1.9 3.8 8.1 9.7 12.6 12 2.1 1.1 3.8 2 3.8 2.2 0 .1-5.6.2-12.5.3-11.7 0-12.6.2-15 2.4-3.5 3.2-3.4 8.1.1 10.9l2.7 2.1h477.8l2.4-2.5c3.3-3.2 3.3-7.4-.1-10.6-2.4-2.2-3.2-2.4-16.2-2.4l-13.7-.1-.1-104.5c-.1-117.3.4-108.6-7.7-113.3-8.3-4.8-24.2-9.4-38.2-11.1-5.7-.7-28.8-.8-32.5-.1-1.4.3-5 .7-8 1.1-3 .3-8.3.9-11.8 1.4l-6.3.7.2-25.8.1-25.9-2.8-3.6c-1.8-2.4-5.1-4.7-9.8-6.8-7-3.2-20.7-8.1-25.6-9-1.4-.3-3.6-.7-5-1-1.4-.3-3.6-.7-5-1-16.9-3.4-50.4-2.5-73 2-9.2 1.8-13.4 2.4-13.9 2-.3-.3-.6-10.8-.7-23.3-.1-12.5-.2-23.5-.3-24.4-.2-2.5-3.4-5.2-10.6-8.7-3.5-1.7-6.6-3.8-6.9-4.7-.3-.9-.6-6.5-.6-12.5 0-12.2-1.3-16.2-5.4-17.3-3.3-.8-7.2.8-8.7 3.5-.6 1.3-1.3 6.4-1.3 11.3l-.2 9.1-2.9-.3c-5.3-.6-5.5-1.2-5.5-17.8 0-9.2-.4-16.3-1.1-17.8-1.7-3.6-7.7-4.8-11.2-2.2zm127.3 115c5.1.4 9.7.9 10 1.1.3.2 2.6.6 5 1 6.8 1 29.1 8.7 31 10.8 1.6 1.7 1.7 11.4 1.8 136.7v135h-6.2c-43.3.3-112.9 0-113.4-.5-.7-.7-1-271.8-.4-274.7.5-2.2 3.7-3.3 16.2-5.7 13.1-2.4 15.8-2.8 24.5-3.7 3.9-.3 7.1-.7 7.2-.8.4-.3 15.8.2 24.3.8zm124.3 72c1.5.3 3.7.8 5 1 4.9 1 6.6 1.5 11.2 3 6.9 2.4 10.3 4.4 10.9 6.3.3 1 .5 46.9.4 102V441h-6.2c-7.2.1-73.5.1-78.6 0h-3.5V337.2c0-57 .4-104.2.8-104.8.4-.7 3.3-1.5 6.4-1.9 3.2-.3 7.2-.8 8.8-1 1.7-.2 5.2-.7 8-1 2.7-.3 5.1-.7 5.2-.9.5-.5 28.8.2 31.6.8z"/><path d="M276.4 177.6c-2.6 3.9-2.3 21.9.3 24.6 2.9 2.9 7.7 3.1 10.6.4 2.3-2.1 2.5-3 2.6-12.9.2-9.5 0-10.8-1.9-12.7-3.1-3.1-9.4-2.8-11.6.6zM307.1 181.6c-1.3 1.6-2.1 4.3-2.2 6.8-.4 13.3-.1 16 2.1 18.4 2.7 2.9 8.3 2.9 11 .2 2.1-2.1 2.3-3.2 2.2-15.5-.1-7.3-.3-8.2-2.7-10.3-3.6-3-7.8-2.9-10.4.4zM385.2 243.6c-3.4 2.3-4.1 7.6-3.3 22.6.3 5.1 8.6 7.6 13.1 4 2.1-1.7 2.3-2.7 2.3-12.6 0-9.6-.2-11-2.1-12.9-2.5-2.5-7.3-3-10-1.1zM414.2 249.3c-2 2.1-2.3 3.6-2.4 11.9-.1 12.8 2.4 16.7 9.7 15.4 4.8-.9 6.1-4.5 6-16-.1-8.7-.3-9.7-2.5-11.6-3.2-2.7-8.1-2.6-10.8.3zM139 138c-2.6 2.6-3.1 5-2.7 15.4.2 7.9.5 9 2.6 10.7 4 3.3 9.3 2.3 11.5-2 1.6-3.2 1.9-16.4.5-20.9-1.7-5.3-8-7.1-11.9-3.2zM168.1 144c-1.4 2.4-1.7 4.8-1.6 12.6.2 8.8.4 9.8 2.8 12.1 2.1 2.2 3.1 2.5 6.1 1.9 5.3-1 6.5-4.1 6.3-15.8-.2-11.4-1.6-13.8-7.9-13.8-3.2 0-4.1.5-5.7 3zM18.3 151.3c-.4.7-.8 74.5-.4 82.7.1 1.3 2.9 1.5 20.4 1.4 11.1 0 22.2-.4 24.6-.8 13.3-2.4 20.8-10.3 21.5-22.5.5-7.7-1.4-12.8-6.4-17.2-2.9-2.7-3.6-3.8-2.6-4.2.8-.3 2.7-2.5 4.2-4.7 5.9-8.9 3.3-23.1-5.4-29.2-7-4.9-13.7-6.1-35.5-6.3-11.5-.1-20.1.3-20.4.8zm34.8 17.6c1.4.1 3.5 1 4.7 2.1 4.4 4.1 1.7 12.9-4 13.1-1.3 0-4.4.2-7.1.3-2.6.1-5.1 0-5.5-.3-1-.8-1-14.4 0-15.2.5-.3 2.7-.4 5.1-.3 2.3.1 5.4.3 6.8.3zm6.1 33.9c3.1 3 3.2 8.9.3 11.8-1.3 1.3-3 2.4-3.7 2.5-4.8.4-14 .4-14.7-.1-1-.7-.9-15.3.2-16.1.4-.3 4.2-.4 8.3-.3 6.1.2 8 .6 9.6 2.2zM41.5 250c-12.8 2.9-22.4 12.4-25.9 25.5-1.8 7-1.9 24.7-.2 31.2 3.1 11.8 10.4 20.6 20.1 24.2 13.2 4.9 34.1 2.1 44.3-6l3.1-2.4V305l.1-17.6-16.9.1c-9.3 0-17.3.3-17.7.7-.9 1-1.1 14.8-.1 14.9.4.1 3 .3 5.7.4 2.8.1 5.5.3 6 .4.6 0 1 2.1 1 4.6 0 5.4-2 6.8-9.6 6.7-6.4 0-9.8-2.1-12.6-7.6-1.8-3.4-2.1-5.9-2.2-15.6 0-9.7.3-12.2 2.1-16.2 3.2-7.1 7.4-9.1 15.5-7.5 2.9.6 4 1.5 5.7 4.9 1.1 2.3 1.8 4.5 1.5 5-.3.4 1.2.8 3.3.9 2.1 0 7.1.1 11.2.2l7.3.2-.6-4.3c-1.3-9.8-6.6-17.6-14.6-21.7-6.8-3.4-19.3-5-26.5-3.5z"/></svg>